<?xml version="1.0" encoding="utf-8"?>
<!-- Generator: Adobe Illustrator 18.0.0, SVG Export Plug-In . SVG Version: 6.00 Build 0)  -->
<!DOCTYPE svg PUBLIC "-//W3C//DTD SVG 1.1//EN" "http://www.w3.org/Graphics/SVG/1.1/DTD/svg11.dtd">
<svg version="1.1" id="Layer_1" xmlns="http://www.w3.org/2000/svg" xmlns:xlink="http://www.w3.org/1999/xlink" x="0px" y="0px"
	 width="612px" height="792px" viewBox="0 0 612 792" enable-background="new 0 0 612 792" xml:space="preserve">
<g>
	<path fill="#22B5B4" d="M326.4,442.3c-3.8-2.4-6.2-6.3-6.8-10.8l-0.5-4.6h-26.3l-0.6,4.6c-0.5,4.5-3,8.4-6.7,10.8l-4.6,2.9v6.7h50
		v-6.7L326.4,442.3z"/>
	<path fill="#22B5B4" d="M364.2,425H247.8c-2.8,0-5-2.2-5-5v-74c0-2.8,2.2-5,5-5h116.5c2.8,0,5,2.2,5,5v74
		C369.2,422.8,367,425,364.2,425z"/>
	<rect x="247.8" y="346" fill="#F3E7D3" width="116.3" height="63.4"/>
	<polygon fill="#F8F2EB" points="363.9,376 331,409 336,409 364.2,380.8 	"/>
	<rect x="247.8" y="346" fill="#D5C9B6" width="116.2" height="18"/>
	<polygon fill="#F8F2EB" points="287.2,346 248,385.2 248,371 273,346 	"/>
	<polygon fill="#F8F2EB" points="363.9,368.5 322.5,410 308,410 364.2,353.8 	"/>
	<polygon fill="#F8F2EB" points="322.1,347 259.2,410 254,410 317.8,346 323,346 	"/>
	<polygon fill="#F8F2EB" points="343.5,346.7 281.5,409 265,409 327.8,346 344,346 	"/>
	<path fill="#555553" d="M364,365H249c-0.6,0-1-0.4-1-1s0.4-1,1-1h115c0.6,0,1,0.4,1,1S364.6,365,364,365z"/>
	<circle fill="#F8F2EB" cx="259.3" cy="354.8" r="5.1"/>
	<circle fill="#F8F2EB" cx="278" cy="354.8" r="5.1"/>
	<path fill="#555553" d="M259.3,360.9c-3.4,0-6.1-2.7-6.1-6.1c0-3.4,2.7-6.1,6.1-6.1s6.1,2.7,6.1,6.1
		C265.4,358.2,262.6,360.9,259.3,360.9z M259.3,350.7c-2.3,0-4.1,1.8-4.1,4.1s1.8,4.1,4.1,4.1s4.1-1.8,4.1-4.1
		S261.5,350.7,259.3,350.7z"/>
	<path fill="#555553" d="M278,360.9c-3.4,0-6.1-2.7-6.1-6.1c0-3.4,2.7-6.1,6.1-6.1s6.1,2.7,6.1,6.1
		C284.1,358.2,281.4,360.9,278,360.9z M278,350.7c-2.3,0-4.1,1.8-4.1,4.1s1.8,4.1,4.1,4.1c2.3,0,4.1-1.8,4.1-4.1
		S280.3,350.7,278,350.7z"/>
	<g>
		<path fill="#555553" d="M279.1,402.7c-0.6,0-1.2-0.3-1.6-0.8c-0.7-0.9-0.5-2.1,0.4-2.8l15.5-12.1L277.9,375
			c-0.9-0.7-1-1.9-0.4-2.8c0.7-0.9,1.9-1,2.8-0.4l17.5,13.6c0.5,0.4,0.8,1,0.8,1.6s-0.3,1.2-0.8,1.6l-17.5,13.6
			C280,402.5,279.5,402.7,279.1,402.7z"/>
		<path fill="#555553" d="M333,402h-28c-1.1,0-2-0.9-2-2s0.9-2,2-2h28c1.1,0,2,0.9,2,2S334.1,402,333,402z"/>
	</g>
	<path fill="#555553" d="M364.2,427H247.8c-3.9,0-7-3.1-7-7v-74c0-3.9,3.1-7,7-7h116.5c3.9,0,7,3.1,7,7v74
		C371.2,423.9,368.1,427,364.2,427z M247.8,343c-1.7,0-3,1.3-3,3v74c0,1.7,1.3,3,3,3h116.5c1.7,0,3-1.3,3-3v-74c0-1.7-1.3-3-3-3
		H247.8z"/>
	<polygon fill="#1A9692" points="292.1,430.4 291.8,435 318.8,435 319.2,429 	"/>
	<polygon fill="#555553" points="293.1,426.4 292.8,431 318,431 318.3,425 	"/>
	<rect x="280.9" y="445.4" fill="#A4DBD9" width="50.2" height="6.9"/>
	<path fill="#555553" d="M331.1,454.2h-50.2c-1.1,0-2-0.9-2-2v-6.9c0-1.1,0.9-2,2-2h50.2c1.1,0,2,0.9,2,2v6.9
		C333.1,453.4,332.2,454.2,331.1,454.2z M282.9,450.2h46.2v-2.9h-46.2V450.2z"/>
	<path fill="#555553" d="M280.9,447.4c-0.7,0-1.3-0.3-1.7-0.9c-0.6-0.9-0.3-2.2,0.6-2.8l4.6-3c3.3-2.1,5.4-5.6,5.9-9.5l0.6-4.7
		c0.1-1.1,1.1-1.9,2.2-1.8c1.1,0.1,1.9,1.1,1.8,2.2l-0.6,4.7c-0.6,5.1-3.4,9.6-7.7,12.4l-4.6,3C281.7,447.3,281.3,447.4,280.9,447.4
		z"/>
	<path fill="#555553" d="M331.1,447.4c-0.4,0-0.8-0.1-1.1-0.3l-4.6-3c-4.3-2.8-7.1-7.3-7.7-12.4l-0.6-4.7c-0.1-1.1,0.7-2.1,1.8-2.2
		c1.1-0.1,2.1,0.7,2.2,1.8l0.6,4.7c0.5,3.9,2.6,7.3,5.9,9.5l4.6,3c0.9,0.6,1.2,1.8,0.6,2.8C332.4,447.1,331.7,447.4,331.1,447.4z"/>
	<path fill="#555553" d="M364.2,410.4H247.8c-0.6,0-1-0.4-1-1V346c0-0.6,0.4-1,1-1h116.3c0.6,0,1,0.4,1,1v63.4
		C365.2,409.9,364.7,410.4,364.2,410.4z M248.8,408.4h114.3V347H248.8V408.4z"/>
</g>
</svg>
