<?xml version="1.0" encoding="utf-8"?>
<!-- Generator: Adobe Illustrator 18.0.0, SVG Export Plug-In . SVG Version: 6.00 Build 0)  -->
<!DOCTYPE svg PUBLIC "-//W3C//DTD SVG 1.1//EN" "http://www.w3.org/Graphics/SVG/1.1/DTD/svg11.dtd">
<svg version="1.1" id="Layer_1" xmlns="http://www.w3.org/2000/svg" xmlns:xlink="http://www.w3.org/1999/xlink" x="0px" y="0px"
	 width="150px" height="150px" viewBox="0 0 150 150" enable-background="new 0 0 150 150" xml:space="preserve">
<image display="none" overflow="visible" width="1303" height="1112" id="Sketch" xlink:href="381166730B38FAE3.png"  transform="matrix(0.7064 0 0 0.7064 -482.8726 -86.5307)">
</image>
<g>
	<path fill="#23B5B5" d="M95.4,121.3c-3.8-2.4-6.2-6.3-6.8-10.8l-0.5-4.6H61.8l-0.6,4.6c-0.5,4.5-3,8.4-6.7,10.8l-4.6,2.9v6.7h50
		v-6.7L95.4,121.3z"/>
	<path fill="#23B5B5" d="M133.2,104H16.8c-2.8,0-5-2.2-5-5V25c0-2.8,2.2-5,5-5h116.5c2.8,0,5,2.2,5,5v74
		C138.2,101.8,136,104,133.2,104z"/>
	<rect x="16.8" y="25" fill="#F4E8D3" width="116.3" height="63.4"/>
	<polygon fill="#F7F2EB" points="132.9,55 100,88 105,88 133.2,59.8 	"/>
	<rect x="16.8" y="25" fill="#D6C9B6" width="116.2" height="18"/>
	<polygon fill="#F7F2EB" points="56.2,25 17,64.2 17,50 42,25 	"/>
	<polygon fill="#F7F2EB" points="132.9,47.5 91.5,89 77,89 133.2,32.8 	"/>
	<polygon fill="#F7F2EB" points="91.1,26 28.2,89 23,89 86.8,25 92,25 	"/>
	<polygon fill="#F7F2EB" points="112.5,25.7 50.5,88 34,88 96.8,25 113,25 	"/>
	
		<line fill="none" stroke="#545452" stroke-width="2" stroke-linecap="round" stroke-linejoin="round" stroke-miterlimit="10" x1="18" y1="43" x2="133" y2="43"/>
	<circle fill="#F7F2EB" cx="28.3" cy="33.8" r="5.1"/>
	<circle fill="#F7F2EB" cx="47" cy="33.8" r="5.1"/>
	
		<circle fill="none" stroke="#545452" stroke-width="2" stroke-linecap="round" stroke-linejoin="round" stroke-miterlimit="10" cx="28.3" cy="33.8" r="5.1"/>
	
		<circle fill="none" stroke="#545452" stroke-width="2" stroke-linecap="round" stroke-linejoin="round" stroke-miterlimit="10" cx="47" cy="33.8" r="5.1"/>
	<g>
		
			<polyline fill="none" stroke="#545452" stroke-width="4" stroke-linecap="round" stroke-linejoin="round" stroke-miterlimit="10" points="
			48.1,79.7 65.6,66 48.1,52.4 		"/>
		
			<line fill="none" stroke="#545452" stroke-width="4" stroke-linecap="round" stroke-linejoin="round" stroke-miterlimit="10" x1="74" y1="79" x2="102" y2="79"/>
	</g>
	<path fill="none" stroke="#545452" stroke-width="4" stroke-linecap="round" stroke-linejoin="round" stroke-miterlimit="10" d="
		M133.2,104H16.8c-2.8,0-5-2.2-5-5V25c0-2.8,2.2-5,5-5h116.5c2.8,0,5,2.2,5,5v74C138.2,101.8,136,104,133.2,104z"/>
	<polygon fill="#1A9692" points="61.1,109.4 60.8,114 87.8,114 88.2,108 	"/>
	<polygon fill="#545452" points="62.1,105.4 61.8,110 87,110 87.3,104 	"/>
	<rect x="49.9" y="124.4" fill="#A2DDDA" width="50.2" height="6.9"/>
	
		<rect x="49.9" y="124.4" fill="none" stroke="#545452" stroke-width="4" stroke-linecap="round" stroke-linejoin="round" stroke-miterlimit="10" width="50.2" height="6.9"/>
	<path fill="none" stroke="#545452" stroke-width="4" stroke-linecap="round" stroke-linejoin="round" stroke-miterlimit="10" d="
		M61.8,105.8l-0.6,4.7c-0.5,4.5-3,8.5-6.8,10.9l-4.6,3"/>
	<path fill="none" stroke="#545452" stroke-width="4" stroke-linecap="round" stroke-linejoin="round" stroke-miterlimit="10" d="
		M88.2,105.8l0.6,4.7c0.5,4.5,3,8.5,6.8,10.9l4.6,3"/>
	
		<rect x="16.8" y="25" fill="none" stroke="#545452" stroke-width="2" stroke-linecap="round" stroke-linejoin="round" stroke-miterlimit="10" width="116.3" height="63.4"/>
</g>
</svg>
