<?xml version="1.0" encoding="utf-8"?>
<!-- Generator: Adobe Illustrator 18.0.0, SVG Export Plug-In . SVG Version: 6.00 Build 0)  -->
<!DOCTYPE svg PUBLIC "-//W3C//DTD SVG 1.1//EN" "http://www.w3.org/Graphics/SVG/1.1/DTD/svg11.dtd">
<svg version="1.1" id="Layer_1" xmlns="http://www.w3.org/2000/svg" xmlns:xlink="http://www.w3.org/1999/xlink" x="0px" y="0px"
	 width="150px" height="150px" viewBox="0 0 150 150" enable-background="new 0 0 150 150" xml:space="preserve">
<image display="none" overflow="visible" width="1303" height="1112" id="Sketch" xlink:href="794312425AE17B9D.png"  transform="matrix(0.7064 0 0 0.7064 -232.8726 -86.5307)">
</image>
<g>
	<polygon fill="#23B5B5" points="75,141 75,16 55,35.5 55,136 	"/>
	<polygon fill="#52DBD8" points="75,141 75,16 95,35.5 95,136 	"/>
	
		<polygon fill="none" stroke="#545452" stroke-width="4" stroke-linecap="round" stroke-linejoin="round" stroke-miterlimit="10" points="
		75,141 75,16 55,35.5 55,136 	"/>
	
		<polygon fill="none" stroke="#545452" stroke-width="4" stroke-linecap="round" stroke-linejoin="round" stroke-miterlimit="10" points="
		75,141 75,16 95,35.5 95,136 	"/>
	
		<line fill="none" stroke="#F4E8D3" stroke-width="2" stroke-linecap="round" stroke-linejoin="round" stroke-miterlimit="10" x1="81" y1="29" x2="81" y2="133"/>
	
		<line fill="none" stroke="#F4E8D3" stroke-width="2" stroke-linecap="round" stroke-linejoin="round" stroke-miterlimit="10" x1="89" y1="37" x2="89" y2="131"/>
	
		<line fill="none" stroke="#F4E8D3" stroke-width="2" stroke-linecap="round" stroke-linejoin="round" stroke-miterlimit="10" x1="85" y1="33" x2="85" y2="132"/>
	
		<line fill="none" stroke="#7F7F7A" stroke-width="2" stroke-linecap="round" stroke-linejoin="round" stroke-miterlimit="10" x1="69" y1="29" x2="69" y2="133"/>
	
		<line fill="none" stroke="#7F7F7A" stroke-width="2" stroke-linecap="round" stroke-linejoin="round" stroke-miterlimit="10" x1="61" y1="37" x2="61" y2="131"/>
	
		<line fill="none" stroke="#7F7F7A" stroke-width="2" stroke-linecap="round" stroke-linejoin="round" stroke-miterlimit="10" x1="65" y1="33" x2="65" y2="132"/>
	<polygon fill="#1A9692" points="115,141 115,56 95,75.5 95,136 	"/>
	<polygon fill="#23B5B5" points="115,141 115,56 135,75.5 135,136 	"/>
	
		<polygon fill="none" stroke="#545452" stroke-width="4" stroke-linecap="round" stroke-linejoin="round" stroke-miterlimit="10" points="
		115,141 115,56 95,75.5 95,136 	"/>
	
		<polygon fill="none" stroke="#545452" stroke-width="4" stroke-linecap="round" stroke-linejoin="round" stroke-miterlimit="10" points="
		115,141 115,56 135,75.5 135,136 	"/>
	
		<line fill="none" stroke="#F4E8D3" stroke-width="2" stroke-linecap="round" stroke-linejoin="round" stroke-miterlimit="10" x1="121" y1="69" x2="121" y2="133"/>
	
		<line fill="none" stroke="#F4E8D3" stroke-width="2" stroke-linecap="round" stroke-linejoin="round" stroke-miterlimit="10" x1="129" y1="77" x2="129" y2="131"/>
	
		<line fill="none" stroke="#F4E8D3" stroke-width="2" stroke-linecap="round" stroke-linejoin="round" stroke-miterlimit="10" x1="125" y1="73" x2="125" y2="132"/>
	
		<line fill="none" stroke="#63635D" stroke-width="2" stroke-linecap="round" stroke-linejoin="round" stroke-miterlimit="10" x1="109" y1="69" x2="109" y2="133"/>
	
		<line fill="none" stroke="#63635D" stroke-width="2" stroke-linecap="round" stroke-linejoin="round" stroke-miterlimit="10" x1="101" y1="77" x2="101" y2="131"/>
	
		<line fill="none" stroke="#63635D" stroke-width="2" stroke-linecap="round" stroke-linejoin="round" stroke-miterlimit="10" x1="105" y1="73" x2="105" y2="132"/>
	<polygon fill="#1A9692" points="35,141 35,56 15,75.5 15,136 	"/>
	<polygon fill="#23B5B5" points="35,141 35,56 55,75.5 55,136 	"/>
	
		<polygon fill="none" stroke="#545452" stroke-width="4" stroke-linecap="round" stroke-linejoin="round" stroke-miterlimit="10" points="
		35,141 35,56 15,75.5 15,136 	"/>
	
		<polygon fill="none" stroke="#545452" stroke-width="4" stroke-linecap="round" stroke-linejoin="round" stroke-miterlimit="10" points="
		35,141 35,56 55,75.5 55,136 	"/>
	
		<line fill="none" stroke="#F4E8D3" stroke-width="2" stroke-linecap="round" stroke-linejoin="round" stroke-miterlimit="10" x1="41" y1="69" x2="41" y2="133"/>
	
		<line fill="none" stroke="#F4E8D3" stroke-width="2" stroke-linecap="round" stroke-linejoin="round" stroke-miterlimit="10" x1="49" y1="77" x2="49" y2="131"/>
	
		<line fill="none" stroke="#F4E8D3" stroke-width="2" stroke-linecap="round" stroke-linejoin="round" stroke-miterlimit="10" x1="45" y1="73" x2="45" y2="132"/>
	
		<line fill="none" stroke="#63635D" stroke-width="2" stroke-linecap="round" stroke-linejoin="round" stroke-miterlimit="10" x1="29" y1="69" x2="29" y2="133"/>
	
		<line fill="none" stroke="#63635D" stroke-width="2" stroke-linecap="round" stroke-linejoin="round" stroke-miterlimit="10" x1="21" y1="77" x2="21" y2="131"/>
	
		<line fill="none" stroke="#63635D" stroke-width="2" stroke-linecap="round" stroke-linejoin="round" stroke-miterlimit="10" x1="25" y1="73" x2="25" y2="132"/>
</g>
</svg>
