<?xml version="1.0" encoding="utf-8"?>
<!-- Generator: Adobe Illustrator 18.0.0, SVG Export Plug-In . SVG Version: 6.00 Build 0)  -->
<!DOCTYPE svg PUBLIC "-//W3C//DTD SVG 1.1//EN" "http://www.w3.org/Graphics/SVG/1.1/DTD/svg11.dtd">
<svg version="1.1" id="Layer_1" xmlns="http://www.w3.org/2000/svg" xmlns:xlink="http://www.w3.org/1999/xlink" x="0px" y="0px"
	 viewBox="0 0 612 792" enable-background="new 0 0 612 792" xml:space="preserve">
<g id="Tint_Lines">
	<line fill="none" stroke="#FFFFFF" stroke-width="20" stroke-miterlimit="10" x1="202.9" y1="196.2" x2="573.8" y2="632.9"/>
	<polyline fill="none" stroke="#FFFFFF" stroke-width="20" stroke-miterlimit="10" points="345.9,362.2 165.4,493.2 17.8,600.7 	"/>
	<line fill="none" stroke="#FFFFFF" stroke-width="20" stroke-miterlimit="10" x1="103.4" y1="540" x2="317.5" y2="793"/>
	<line fill="none" stroke="#FFFFFF" stroke-width="20" stroke-miterlimit="10" x1="398.6" y1="776.5" x2="161.4" y2="495.9"/>
	<line fill="none" stroke="#FFFFFF" stroke-width="20" stroke-miterlimit="10" x1="531" y1="694.9" x2="285.9" y2="406.2"/>
	<line fill="none" stroke="#FFFFFF" stroke-width="20" stroke-miterlimit="10" x1="529" y1="692.9" x2="163.4" y2="496.5"/>
	<polygon fill="none" stroke="#FFFFFF" stroke-width="20" stroke-miterlimit="10" points="52.7,466.2 73.1,476.8 93.5,466.2 
		89.6,488.7 105.4,505 83,508.4 73.1,528.8 62.6,508.4 40.2,504.5 56.7,488.7 	"/>
</g>
<g id="BackgroundClip">
	<g>
		<g>
			<defs>
				<path id="SVGID_1_" d="M612,484.7c0,75.8-27.7,144.9-73.1,198.3c-56,65.9-139.7,108-233.2,108C137,790.4,0,653.4,0,484.7
					c0-169.3,137-306.3,306.3-306.3C475,178.4,612,315.4,612,484.7z"/>
			</defs>
			<clipPath id="SVGID_2_">
				<use xlink:href="#SVGID_1_"  overflow="visible"/>
			</clipPath>
			<g id="khCBhX_6_" clip-path="url(#SVGID_2_)">
				
					<image overflow="visible" width="1441" height="720" xlink:href="BA203EAAFF31CE1E.jpg"  transform="matrix(0.9994 0 0 0.9994 -214.7533 125.8499)">
				</image>
			</g>
		</g>
	</g>
</g>
</svg>
